<?xml version="1.0" standalone="no"?>
<!DOCTYPE svg PUBLIC "-//W3C//DTD SVG 20010904//EN"
 "http://www.w3.org/TR/2001/REC-SVG-20010904/DTD/svg10.dtd">
<svg version="1.0" xmlns="http://www.w3.org/2000/svg"
 width="225.000000pt" height="225.000000pt" viewBox="0 0 225.000000 225.000000"
 preserveAspectRatio="xMidYMid meet">
<metadata>
Created by potrace 1.14, written by Peter Selinger 2001-2017
</metadata>
<g transform="translate(0.000000,225.000000) scale(0.100000,-0.100000)"
fill="#000000" stroke="none">
<path d="M1090 1883 c-12 -15 -70 -79 -129 -143 -59 -63 -128 -137 -153 -165
-82 -89 -84 -167 -7 -264 42 -53 57 -65 39 -32 -14 26 -12 91 3 118 11 19 73
89 227 254 l55 59 130 -142 c72 -78 138 -155 147 -172 20 -36 23 -78 7 -109
-8 -16 -1 -12 24 12 66 62 86 146 51 214 -18 34 -350 397 -364 397 -5 0 -18
-12 -30 -27z"/>
<path d="M1028 1385 c-117 -126 -117 -134 -10 -247 42 -46 82 -88 88 -94 8
-10 29 6 86 64 135 139 137 151 40 254 -38 40 -77 83 -88 96 -10 12 -21 22
-24 22 -3 0 -44 -43 -92 -95z"/>
<path d="M530 1078 c-18 -13 -42 -35 -52 -49 -17 -23 -173 -507 -166 -514 8
-8 494 -115 520 -115 69 0 139 58 158 131 6 22 14 48 17 57 4 9 -6 3 -21 -15
-44 -52 -73 -52 -298 -2 -109 24 -198 47 -198 52 0 4 21 74 46 155 25 81 52
168 60 194 15 49 54 87 104 104 l25 8 -30 7 c-66 15 -131 10 -165 -13z"/>
<path d="M1540 1091 l-25 -7 25 -9 c40 -13 81 -45 92 -74 36 -93 118 -375 111
-381 -4 -5 -91 -27 -193 -50 -208 -47 -246 -47 -292 -3 l-30 28 7 -25 c29 -99
82 -157 153 -167 27 -4 116 12 288 52 137 31 250 58 252 60 7 7 -150 492 -166
515 -36 48 -80 70 -141 69 -31 -1 -67 -4 -81 -8z"/>
<path d="M778 999 c-15 -8 -104 -256 -95 -265 7 -7 222 -54 248 -54 31 0 79
40 79 66 0 8 14 57 31 110 17 53 28 98 25 101 -9 9 -207 53 -239 53 -18 0 -40
-5 -49 -11z"/>
<path d="M1272 985 c-51 -12 -95 -25 -98 -28 -3 -2 11 -58 30 -123 51 -170 54
-172 244 -128 87 20 112 30 108 40 -3 8 -20 61 -37 117 -17 56 -41 112 -52
125 -26 28 -70 28 -195 -3z"/>
</g>
</svg>
